<svg width="40" height="40" viewBox="0 0 40 40" fill="none" xmlns="http://www.w3.org/2000/svg">
<path d="M20.7175 8.7908C22.4982 8.7908 23.9417 7.42704 23.9417 5.74476C23.9417 4.06249 22.4982 2.69873 20.7175 2.69873C18.9368 2.69873 17.4933 4.06249 17.4933 5.74476C17.4933 7.42704 18.9368 8.7908 20.7175 8.7908Z" fill="#F66E43"/>
<path d="M29.4225 13.5421C28.6603 13.0858 27.6467 13.3 27.1636 14.0225C26.5553 14.9305 24.9964 15.3653 23.6872 14.9893C22.6285 14.6861 22.0006 13.932 21.8286 12.8011C21.8909 12.4066 21.8499 12.0098 21.732 11.6324C21.7066 11.5233 21.6673 11.4196 21.619 11.3206C21.5961 11.2711 21.5666 11.2247 21.5412 11.176C21.529 11.1582 21.52 11.1389 21.5077 11.1211C21.276 10.715 20.9436 10.3538 20.4973 10.0939C19.8096 9.69397 19.0146 9.60501 18.2908 9.77905C16.402 9.79143 14.5958 10.4195 13.086 11.6262C10.3932 13.7757 8.90633 17.5001 9.00458 21.8441C9.02341 22.6872 9.75291 23.3578 10.6413 23.3578C10.6535 23.3578 10.665 23.3578 10.6773 23.3578C11.5812 23.3392 12.2984 22.6323 12.2796 21.7775C12.2026 18.385 13.2604 15.5571 15.1796 14.0085C14.3772 16.954 15.0068 20.0689 17.0414 22.9463C17.0635 23.0701 17.0971 23.1938 17.1462 23.3168C19.2971 28.6911 18.082 29.6695 14.8324 32.2832C14.0915 32.8796 13.2522 33.5556 12.3876 34.3438C11.5746 35.0863 11.5525 36.31 12.3377 37.0781C12.7397 37.471 13.2743 37.6683 13.8098 37.6683C14.3215 37.6683 14.8341 37.4881 15.232 37.1253C16.0032 36.4214 16.7573 35.815 17.486 35.2279C20.4482 32.8455 23.0633 30.7215 22.0693 25.5561C24.406 28.0854 24.2791 30.136 24.1154 32.7272C24.0532 33.7095 23.9893 34.7236 24.0474 35.8304C24.1015 36.8646 25.0062 37.6683 26.0902 37.6683C26.1246 37.6683 26.1582 37.6675 26.1926 37.666C27.3216 37.6134 28.1919 36.706 28.1363 35.6386C28.0888 34.7437 28.1436 33.8766 28.2026 32.9577C28.4318 29.3284 28.6693 25.2273 22.0415 20.2955C22.0047 20.2398 21.9785 20.1849 21.9359 20.1284C21.2833 19.2629 20.6767 18.1243 20.594 16.8349C21.1982 17.3237 21.9072 17.712 22.7383 17.9503C23.3671 18.1297 24.0147 18.2164 24.6582 18.2164C26.7919 18.2164 28.8658 17.2704 29.9326 15.677C30.414 14.9545 30.1864 13.9985 29.4225 13.5421Z" fill="#F66E43"/>
</svg>
