<svg width="40" height="40" viewBox="0 0 40 40" fill="none" xmlns="http://www.w3.org/2000/svg">
<path d="M3.33331 36.6666L26.6666 28.3333L11.6666 13.3333L3.33331 36.6666Z" fill="#FFC600"/>
<path d="M24.2166 20.8832L33.5333 11.5666C34.35 10.7499 35.6666 10.7499 36.4833 11.5666L37.4666 12.5499L39.2333 10.7832L38.25 9.7999C36.4666 8.01657 33.55 8.01657 31.7666 9.7999L22.45 19.1166L24.2166 20.8832Z" fill="#FFC600"/>
<path d="M16.7666 11.4666L15.7833 12.4499L17.55 14.2166L18.5333 13.2333C20.3166 11.4499 20.3166 8.53327 18.5333 6.74994L17.55 5.7666L15.7833 7.54993L16.7666 8.53327C17.5666 9.33327 17.5666 10.6666 16.7666 11.4666Z" fill="#FFC600"/>
<path d="M28.4333 19.7999L25.7833 22.4499L27.55 24.2166L30.2 21.5666C31.0166 20.7499 32.3333 20.7499 33.15 21.5666L35.8333 24.2499L37.6 22.4832L34.9166 19.7999C33.1166 18.0166 30.2166 18.0166 28.4333 19.7999Z" fill="#FFC600"/>
<path d="M25.1 9.80002L19.1167 15.7834L20.8833 17.55L26.8667 11.5667C28.65 9.78335 28.65 6.86668 26.8667 5.08335L24.2167 2.43335L22.45 4.20002L25.1 6.85002C25.9 7.66668 25.9 9.00002 25.1 9.80002Z" fill="#FFC600"/>
</svg>
