<svg width="40" height="40" viewBox="0 0 40 40" fill="none" xmlns="http://www.w3.org/2000/svg">
<path d="M9.99999 6.68335C5.96665 9.73335 3.33332 14.55 3.33332 20C3.33332 22.4333 3.86665 24.75 4.81665 26.85L9.99999 23.85V6.68335Z" fill="#FFA800"/>
<path d="M18.3333 19.0334V3.41675C16.5667 3.60008 14.8833 4.05008 13.3333 4.73341V21.9334L18.3333 19.0334Z" fill="#FFA800"/>
<path d="M20 21.9167L6.48333 29.7167C7.5 31.1167 8.71666 32.3667 10.1167 33.3834L25 24.8167L20 21.9167Z" fill="#FFA800"/>
<path d="M21.6666 13.2666V19.0333L35.1833 26.8333C35.8833 25.2833 36.35 23.6166 36.55 21.8666L21.6666 13.2666Z" fill="#FFA800"/>
<path d="M13.45 35.3334C15.4666 36.1834 17.6666 36.6667 20 36.6667C25.5666 36.6667 30.4833 33.9167 33.5166 29.7334L28.3333 26.7334L13.45 35.3334Z" fill="#FFA800"/>
<path d="M36.5333 18.0167C35.6166 10.3001 29.4333 4.18341 21.6666 3.41675V9.41675L36.5333 18.0167Z" fill="#FFA800"/>
</svg>
